<svg xmlns="http://www.w3.org/2000/svg" width="449.705" height="326.593" viewBox="0 0 449.705 326.593">
    <g data-name="Group 122" style="opacity:.04">
        <path data-name="Path 437" d="M-.758 99.031A11.075 11.075 0 0 0 10.3 87.94 11.075 11.075 0 0 0-.758 76.849 11.075 11.075 0 0 0-11.816 87.94 11.075 11.075 0 0 0-.758 99.031z" style="fill:#fff" transform="translate(60.173 -45.898)"/>
        <path data-name="Path 438" d="M300.173 78.479a16.29 16.29 0 1 0-16.241-16.29 16.266 16.266 0 0 0 16.241 16.29z" style="fill:#fff" transform="translate(60.173 -45.898)"/>
        <path data-name="Path 439" d="M317.813 73.2a11.091 11.091 0 1 0-11.058-11.091A11.075 11.075 0 0 0 317.813 73.2z" style="fill:#fff" transform="translate(60.173 -45.898)"/>
        <path data-name="Path 440" d="M281.67 70.81a8.925 8.925 0 1 0-8.9-8.925 8.912 8.912 0 0 0 8.9 8.925z" style="fill:#fff" transform="translate(60.173 -45.898)"/>
        <path data-name="Path 441" d="M123.92 135.262a16.291 16.291 0 1 0-16.242-16.29 16.265 16.265 0 0 0 16.242 16.29z" style="fill:#fff" transform="translate(60.173 -45.898)"/>
        <path data-name="Path 442" d="M141.554 129.987A11.091 11.091 0 1 0 130.5 118.9a11.074 11.074 0 0 0 11.054 11.087z" style="fill:#fff" transform="translate(60.173 -45.898)"/>
        <path data-name="Path 443" d="M105.416 127.594a8.926 8.926 0 1 0-8.9-8.925 8.911 8.911 0 0 0 8.9 8.925z" style="fill:#fff" transform="translate(60.173 -45.898)"/>
        <path data-name="Path 444" d="m-59.666 253.113 1.231 58.966s22.256 8.329 31.641 10.317 31.219 14.481 31.219 14.481l-.367-83.488-63.713-.428" style="fill:#e9edfa" transform="translate(60.173 -45.898)"/>
        <path data-name="Path 445" d="m-60.119 253.113 64.178.271L3.767 238h-19.006s-2.36-9.207-11.209-9.207a12.405 12.405 0 0 0-12.667 9.694l-21.058-.222z" style="fill:#036a82" transform="translate(60.173 -45.898)"/>
        <path data-name="Path 446" d="m3.869 294.494.54 42.389s33.628 22.442 35.755 24.045 19.713 10.155 27.71 10.691l1.442-85.535-4.724-.185-23.1-28.778-8.558-.412-29.059 37.764" style="fill:#036a82" transform="translate(60.173 -45.898)"/>
        <path data-name="Path 447" d="m3.869 294.494 29.087-36.648 3.213.119 3.672.217 2.025.211 22.726 27.534 4.724.178v-1.641l-4.546-.184L43 257.592l.14-10.323-10.545-.547-.405 10.566L4.231 270.79z" style="fill:#e9edfa" transform="translate(60.173 -45.898)"/>
        <path data-name="Path 448" d="M22.33 286.544h5.291v6.206H22.33zm23.331.049h5.292v6.207h-5.292zm-8.585-.017h5.292v6.207h-5.292zm-7.025-.048h5.291v6.206h-5.291zm-7.716 9.5h5.292v6.207h-5.292zm23.331.049h5.292v6.206h-5.292zm-8.58-.011h5.292v6.207h-5.292zm-7.025-.049h5.291v6.207h-5.29zM9.782 324.069h5.291v6.207H9.782zm6.873-7.138h5.291v6.207h-5.291zm-7.025-.048h5.291v6.206H9.63zm7.095 7.246h5.291v6.206h-5.291zm13.785.086h5.29v6.207h-5.29zm6.868-7.137h5.291v6.206h-5.291zm-7.025-.049h5.291v6.206h-5.291zm7.095 7.246h5.292v6.206h-5.292zm13.126.146h5.291v6.207h-5.291zm6.868-7.143h5.291v6.206h-5.291zm-7.025-.049h5.291v6.207h-5.29zm7.095 7.252H62.8v6.206h-5.287zm-7.219 30.241h5.292v8.855h-5.292zm6.874-7.143h5.291v6.206h-5.291zm-7.025-.044h5.292v6.207h-5.292zm-13.8-.13h5.292v6.207h-5.293zm5.34 14.444L36.4 358.4l-.027-3.406h5.287zm-12.365-14.492h5.291v6.206h-5.291zm5.264 9.743-1.345-.932-2.2-1.457 3.537.011zm22.656-2.318h5.291v8.818h-5.291z" style="fill:#fff" transform="translate(60.173 -45.898)"/>
        <path data-name="Path 449" d="M96.7 229.6h9.973l-.151-4.879-9.984-.1z" style="fill:#bac6f2" transform="translate(60.173 -45.898)"/>
        <path data-name="Path 450" d="m68.867 275.382-.956 96.232s17.138 2.648 32.553-1.257 33.266-8.123 33.266-8.123l.594-85.936-10.378-5.113-16.835-29.9-.411-11.685h-9.993l-.319 11.687-17.737 29.373z" style="fill:#e9edfa" transform="translate(60.173 -45.898)"/>
        <path data-name="Path 451" d="M94.493 283.636h6.544v8.164h-6.544zm8.871.146h6.982v8.018h-6.982zm-9.017 9.548h6.544v8.17h-6.544zm8.872.146h6.981v8.024h-6.981zm-8.586 19.312h6.545v8.167h-6.545zm-15.421-.048h6.544v8.167h-6.543zm38.7.363h6.544v8.166h-6.544zm.189 35.976h6.544v8.167h-6.544zm-38.817.233h6.544v8.167h-6.54zm24.216-36.383h6.981v8.021H103.5zm-9.017 9.554h6.544v8.166h-6.539zm8.871.146h6.981v8.02h-6.981zm-8.839 25.551h6.544v8.167h-6.544zm8.871.146h6.981v8.021h-6.981zm-9.017 9.553h6.544v8.167h-6.544zm8.871.147h6.982v8.02h-6.982z" style="fill:#bac6f2" transform="translate(60.173 -45.898)"/>
        <path data-name="Path 452" d="M82.846 297.3a4.588 4.588 0 1 0-4.573-4.588 4.581 4.581 0 0 0 4.573 4.588z" style="fill:#bac6f2" transform="translate(60.173 -45.898)"/>
        <path data-name="Path 453" d="M119.935 298.318a4.587 4.587 0 1 0-4.573-4.587 4.581 4.581 0 0 0 4.573 4.587z" style="fill:#bac6f2" transform="translate(60.173 -45.898)"/>
        <path data-name="Path 454" d="M68.867 275.382h9.973l-.157-4.879-9.984-.1zm55.469.916h9.972l-.156-4.88-9.978-.1z" style="fill:#bac6f2" transform="translate(60.173 -45.898)"/>
        <path data-name="Path 455" d="M102.058 273.021a7.885 7.885 0 1 0-7.862-7.885 7.873 7.873 0 0 0 7.862 7.885z" style="fill:#036a82" transform="translate(60.173 -45.898)"/>
        <path data-name="Path 456" d="m130.189 276.709.577 41.528s1.512 44.489 1.658 44.343c3.547-3.677 58.357-7.43 64.691-7.582l-1.474-86.651-4.725-.184-23.115-28.8-8.558-.412-29.054 37.764" style="fill:#036a82" transform="translate(60.173 -45.898)"/>
        <path data-name="Path 457" d="m130.189 276.709 29.086-36.648 3.213.125 3.672.216 2.024.206 22.727 27.533 4.724.185v-1.641l-4.546-.184-21.771-26.694.141-10.323-10.545-.547-.4 10.572-28.3 31.882z" style="fill:#e9edfa" transform="translate(60.173 -45.898)"/>
        <path data-name="Path 458" d="M148.644 268.759h5.291v6.206h-5.291zm23.336.054h5.292v6.206h-5.292zm-8.58-.013h5.292v6.2H163.4zm-7.024-.049h5.291v6.206h-5.291zm-7.716 9.5h5.291v6.207h-5.291zm23.331.054h5.291v6.207h-5.291zm-8.58-.016h5.289v6.206h-5.291zm-7.025-.049h5.292v6.207h-5.292zm-20.156 32.505h5.292v6.207h-5.292zm6.868-7.138h5.292v6.207h-5.292zm-7.024-.048h5.291v6.206h-5.291zm7.094 7.246h5.292v6.206h-5.292zm13.785.086h5.292v6.207h-5.292zm6.874-7.137h5.291v6.206h-5.291zm-7.027-.054h5.291v6.206H156.8zm7.1 7.246h5.291v6.206H163.9zm13.12.146h5.28v6.208h-5.292zm6.874-7.143h5.291v6.206h-5.291zm-7.025-.049h5.292v6.207h-5.292zm7.1 7.252h5.292v6.206h-5.292zm-47.585 26.808h5.291v6.206h-5.291zm6.868-7.144h5.292v6.207h-5.292zm-7.025-.049h5.292v6.207h-5.292zm7.1 7.247h5.273v6.206h-5.292zm13.785.092h5.291v6.206h-5.291zm6.873-7.144h5.292v6.207h-5.292zm-7.024-.048h5.291v6.206h-5.291zm7.1 7.246h5.291v6.206h-5.291zm13.12.146h5.292v6.207h-5.292zm6.874-7.138h5.291v6.207h-5.291zm-7.025-.049h5.27v6.207h-5.292zm7.1 7.247h5.291v6.206H184.1z" style="fill:#fff" transform="translate(60.173 -45.898)"/>
        <path data-name="Path 459" d="M201.817 256.931s13.963-22.3 15.043-24.463.54-10.831.54-10.831h-3.779s3.239-9.207 12.418-9.207 11.879 4.333 12.959 6.5.54 3.25.54 3.25H236.3v8.665l15.658 25.995h6.48l2.127 100.141s-61.591-2.9-62.892-2.025c-.4.271-.373-2.562-.438-3.055-.27-2.112-2.575-78.717-1.414-94.877-.002.015 6.04-.098 5.996-.093z" style="fill:#e9edfa" transform="translate(60.173 -45.898)"/>
        <path data-name="Path 460" d="M241.438 288.51H249v-10.832s-3.78-5.957-7.56 0zm-36.3.872h7.562V278.55s-3.779-5.957-7.559 0zm0 27.961h7.562v-10.831s-3.779-5.958-7.559 0zm18.05.325h7.56v-10.831s-3.78-5.958-7.56 0zm18.045.325h7.559v-10.832s-3.779-5.957-7.559 0zM205.6 344.1h7.559v-10.835s-3.779-5.957-7.559 0zm18.056.325h7.559V333.59s-3.78-5.957-7.559 0zm18.055.331h7.56V333.92s-3.78-5.957-7.56 0z" style="fill:#fff" transform="translate(60.173 -45.898)"/>
        <path data-name="Path 461" d="M243.787 266.479a4.782 4.782 0 1 0-4.768-4.782 4.775 4.775 0 0 0 4.768 4.782z" style="fill:#e9edfa" transform="translate(60.173 -45.898)"/>
        <path data-name="Path 462" d="M209.706 265.753a4.782 4.782 0 1 0-4.768-4.782 4.775 4.775 0 0 0 4.768 4.782z" style="fill:#e9edfa" transform="translate(60.173 -45.898)"/>
        <path data-name="Path 463" d="M227.1 289.349a4.782 4.782 0 1 0-4.768-4.782 4.775 4.775 0 0 0 4.768 4.782z" style="fill:#e9edfa" transform="translate(60.173 -45.898)"/>
        <path data-name="Path 464" d="M226.747 244.8a4.782 4.782 0 1 0-4.768-4.782 4.774 4.774 0 0 0 4.768 4.782z" style="fill:#e9edfa" transform="translate(60.173 -45.898)"/>
        <path data-name="Path 465" d="M218.82 257.863a5.387 5.387 0 0 1 1.269-3.374 8.462 8.462 0 0 1 6.182-3.158 7.529 7.529 0 0 1 7.533 5.833c.464 2.616.361 15.787.361 15.787h-15.518l.081-3.916z" style="fill:#fff" transform="translate(60.173 -45.898)"/>
        <path data-name="Path 466" d="m258.706 275.745 1.62 81.338s17.775.184 28.654 1.544c9.52 1.191 32.4.092 32.4.092l1.08-82.7-63.713-.428" style="fill:#036a82" transform="translate(60.173 -45.898)"/>
        <path data-name="Path 467" d="m258.252 275.745 64.178.271-.292-15.386h-19.011s-2.36-9.207-11.209-9.207a12.4 12.4 0 0 0-12.667 9.694l-21.058-.222z" style="fill:#036a82" transform="translate(60.173 -45.898)"/>
        <path data-name="Path 468" d="M265.039 284.491h11.35v12.348h-11.35zm20.507-.178H296.9v12.348h-11.35zm20.243.178h11.349v12.348h-11.349zm.173 23.228h11.349v12.348h-11.349zm.162 27.035h11.349V347.1h-11.349zm-20.561-.5h11.349V346.6h-11.349zM265.045 334h11.349v12.347h-11.349zm20.055-26.633h11.349v12.348H285.1z" style="fill:#fff" transform="translate(60.173 -45.898)"/>
        <path data-name="Path 469" d="M285.1 307.367h11.349v12.348H285.1zm-19.978.531h11.349v12.348h-11.345z" style="fill:#fff" transform="translate(60.173 -45.898)"/>
        <path data-name="Path 470" d="M291.318 269.55a6.261 6.261 0 1 0-6.241-6.261 6.251 6.251 0 0 0 6.241 6.261z" style="fill:#fff" transform="translate(60.173 -45.898)"/>
        <path data-name="Path 471" d="M350.005 206.04h9.972l-.156-4.874-9.984-.109z" style="fill:#fff" transform="translate(60.173 -45.898)"/>
        <path data-name="Path 472" d="m322.171 251.824-1.194 107.019s21.35-5.415 34.87-12.152c12.813-6.375 18.9-20.407 20.356-23.147a6.3 6.3 0 0 0 .388-.915L384 300.544a11.068 11.068 0 0 0 .459-1.863l3.38-21.793 1.62-9.976a5.94 5.94 0 0 0 0-1.863l-1.787-11.866a.836.836 0 0 0-.154-.367.819.819 0 0 0-.3-.255l-10.01-4.929-16.836-29.894-.416-11.687h-9.972l-.319 11.687-17.715 29.353z" style="fill:#e9edfa" transform="translate(60.173 -45.898)"/>
        <path data-name="Path 473" d="M347.8 260.078h6.544v8.166H347.8zm8.866.14h6.982v8.021h-6.982zm-9.011 9.554h6.545v8.166h-6.544zm8.865.146h6.98v8.02h-6.982zm-8.579 19.307h6.544v8.167h-6.544zm-15.421-.044h6.544v8.167h-6.544zm38.7.363h6.544v8.167h-6.544zm2.106 39.686-1.966 2.838.249-7.159 3.974-.163zm-40.734-3.476h6.545v8.166h-6.545zm24.208-36.383h6.982v8.021H356.8zm-9.011 9.553h6.544v8.167h-6.544zm8.866.146h6.981v8.021h-6.981zm-8.839 25.552h6.544v8.167h-6.544zm8.866.146h6.981v8.021h-6.981zm-9.012 9.553h6.544v8.167h-6.544zm15.3 7.6-.74.569h-5.691v-8.021h6.981v6.922z" style="fill:#fff" transform="translate(60.173 -45.898)"/>
        <path data-name="Path 474" d="M336.15 273.736a4.587 4.587 0 1 0-4.574-4.587 4.581 4.581 0 0 0 4.574 4.587z" style="fill:#fff" transform="translate(60.173 -45.898)"/>
        <path data-name="Path 475" d="M373.238 274.759a4.587 4.587 0 1 0-4.573-4.587 4.58 4.58 0 0 0 4.573 4.587z" style="fill:#fff" transform="translate(60.173 -45.898)"/>
        <path data-name="Path 476" d="M322.165 251.824h9.973l-.151-4.88-9.984-.1zm55.474.915h9.973l-.648-3.06-.421-1.83-9.071-.092z" style="fill:#fff" transform="translate(60.173 -45.898)"/>
        <path data-name="Path 477" d="M355.355 249.463a7.886 7.886 0 1 0-7.861-7.885 7.874 7.874 0 0 0 7.861 7.885z" style="fill:#fff" transform="translate(60.173 -45.898)"/>
    </g>
</svg>
