<svg xmlns="http://www.w3.org/2000/svg" width="21" height="21" viewBox="0 0 21 21">
    <path d="M9.406 16.887a2.265 2.265 0 0 1-.752-.114C5.311 15.628 0 11.559 0 5.547A5.538 5.538 0 0 1 5.521 0a5.437 5.437 0 0 1 3.885 1.61A5.437 5.437 0 0 1 13.291 0a5.544 5.544 0 0 1 5.521 5.547c0 6.02-5.311 10.08-8.654 11.226a2.265 2.265 0 0 1-.752.114zM5.521 1.313a4.227 4.227 0 0 0-4.208 4.234c0 5.976 5.749 9.3 7.77 9.993a1.387 1.387 0 0 0 .656 0c2.012-.691 7.77-4.007 7.77-9.993A4.227 4.227 0 0 0 13.3 1.313a4.157 4.157 0 0 0-3.36 1.7.677.677 0 0 1-1.05 0 4.174 4.174 0 0 0-3.369-1.7z" transform="translate(1.094 2.056)" style="fill:#fff"/>
</svg>
