<svg xmlns="http://www.w3.org/2000/svg" width="24" height="24" viewBox="0 0 24 24">
    <path d="M6.75 1.5h-6A.755.755 0 0 1 0 .75.755.755 0 0 1 .75 0h6a.755.755 0 0 1 .75.75.755.755 0 0 1-.75.75z" transform="translate(7.75 9.25)" style="fill:#036a82"/>
    <path data-name="Vector" d="M3.75 1.5h-3A.755.755 0 0 1 0 .75.755.755 0 0 1 .75 0h3a.755.755 0 0 1 .75.75.755.755 0 0 1-.75.75z" transform="translate(7.75 12.25)" style="fill:#036a82"/>
    <path data-name="Vector" d="M19 9.5A9.5 9.5 0 1 1 9.5 0 9.5 9.5 0 0 1 19 9.5z" transform="translate(2 2)" style="opacity:.4;fill:#036a82"/>
    <path data-name="Vector" d="M2.552 3.252a.7.7 0 0 1-.49-.2L.2 1.192A.706.706 0 0 1 .2.2a.706.706 0 0 1 .99 0l1.86 1.86a.706.706 0 0 1 0 .99.738.738 0 0 1-.498.202z" transform="translate(18.747 18.747)" style="fill:#036a82"/>
</svg>
