<svg xmlns="http://www.w3.org/2000/svg" width="16.8" height="12" viewBox="0 0 16.8 12">
    <path data-name="Path 23" d="M24.8 18.2v4.2a.6.6 0 1 1-1.2 0v-.6H9.2v.6a.6.6 0 1 1-1.2 0v-4.2a1.8 1.8 0 0 1 1.8-1.8H23a1.8 1.8 0 0 1 1.8 1.8z" transform="translate(-8 -11)" style="fill:#707070"/>
    <path data-name="Path 24" d="M9.8 15.2v-3.6a.6.6 0 0 1 .6-.6h12a.6.6 0 0 1 .6.6v3.6h-1.8v-.6a1.2 1.2 0 0 0-1.2-1.2h-1.8a1.2 1.2 0 0 0-1.2 1.2v.6h-1.2v-.6a1.2 1.2 0 0 0-1.2-1.2h-1.8a1.2 1.2 0 0 0-1.2 1.2v.6z" transform="translate(-8 -11)" style="fill:#707070"/>
</svg>
