<svg xmlns="http://www.w3.org/2000/svg" width="24" height="24" viewBox="0 0 24 24">
    <g data-name="ic_hidden _password">
        <path d="M6.11 1.05 1.05 6.11a3.578 3.578 0 1 1 5.06-5.06z" transform="translate(8.42 8.42)" style="stroke:#757575;stroke-linecap:round;stroke-linejoin:round;stroke-width:1.5px;fill:none"/>
        <path data-name="Vector" d="M15.6 2.04A9.631 9.631 0 0 0 9.785 0c-3.53 0-6.82 2.08-9.11 5.68a5.326 5.326 0 0 0 0 5.19 14.326 14.326 0 0 0 2.71 3.17" transform="translate(2.215 3.73)" style="stroke:#757575;stroke-linecap:round;stroke-linejoin:round;stroke-width:1.5px;fill:none"/>
        <path data-name="Vector" d="M0 11.6a9.215 9.215 0 0 0 3.58.74c3.53 0 6.82-2.08 9.11-5.68a5.326 5.326 0 0 0 0-5.19A16.222 16.222 0 0 0 11.63 0" transform="translate(8.42 7.93)" style="stroke:#757575;stroke-linecap:round;stroke-linejoin:round;stroke-width:1.5px;fill:none"/>
        <path data-name="Vector" d="M2.82 0A3.565 3.565 0 0 1 0 2.82" transform="translate(12.69 12.7)" style="stroke:#757575;stroke-linecap:round;stroke-linejoin:round;stroke-width:1.5px;fill:none"/>
        <path data-name="Vector" d="M7.47 0 0 7.47" transform="translate(2 14.53)" style="stroke:#757575;stroke-linecap:round;stroke-linejoin:round;stroke-width:1.5px;fill:none"/>
        <path data-name="Vector" d="M7.47 0 0 7.47" transform="translate(14.53 2)" style="stroke:#757575;stroke-linecap:round;stroke-linejoin:round;stroke-width:1.5px;fill:none"/>
    </g>
</svg>
