<svg xmlns="http://www.w3.org/2000/svg" width="13.75" height="16.874" viewBox="0 0 13.75 16.874">
    <path d="m6.492 17.314.058.033.023.013a.633.633 0 0 0 .6 0l.023-.012.059-.034q.489-.29.953-.618a16.319 16.319 0 0 0 2.236-1.9 10.613 10.613 0 0 0 3.3-7.356A6.875 6.875 0 1 0 0 7.438a10.618 10.618 0 0 0 3.3 7.356 16.313 16.313 0 0 0 2.235 1.9q.464.328.954.618zm.383-7.376a2.5 2.5 0 1 0-1.768-.732 2.5 2.5 0 0 0 1.768.732z" transform="translate(0 -.563)" style="fill:#707070;fill-rule:evenodd"/>
</svg>
