<svg xmlns="http://www.w3.org/2000/svg" width="24" height="24" viewBox="0 0 24 24">
    <path d="M14.11 18.826a2.822 2.822 0 0 1-1.21-.26l-5.25-2.63a1.511 1.511 0 0 0-1.18.03l-2.36 1.35a2.832 2.832 0 0 1-2.86.19A2.83 2.83 0 0 1 0 14.926v-9.72a2.959 2.959 0 0 1 1.39-2.39L5.72.336a2.946 2.946 0 0 1 2.59-.07L13.56 2.9a1.557 1.557 0 0 0 1.18-.03l2.35-1.34a2.832 2.832 0 0 1 2.86-.19 2.83 2.83 0 0 1 1.25 2.58v9.73a2.959 2.959 0 0 1-1.39 2.39l-4.33 2.48a3.036 3.036 0 0 1-1.37.306zm-7.01-4.49a2.822 2.822 0 0 1 1.21.26l5.25 2.63a1.557 1.557 0 0 0 1.18-.03l4.33-2.48a1.488 1.488 0 0 0 .63-1.08v-9.73a1.4 1.4 0 0 0-.51-1.28 1.445 1.445 0 0 0-1.36.2l-2.35 1.34a2.946 2.946 0 0 1-2.59.07l-5.25-2.63a1.557 1.557 0 0 0-1.18.03l-4.33 2.48a1.49 1.49 0 0 0-.63 1.09v9.73a1.417 1.417 0 0 0 .5 1.28 1.439 1.439 0 0 0 1.37-.2l2.35-1.34a2.768 2.768 0 0 1 1.38-.34z" transform="translate(1.54 2.584)" style="fill:#036a82"/>
    <path data-name="Vector" d="M.75 14.5a.755.755 0 0 1-.75-.75v-13A.755.755 0 0 1 .75 0a.755.755 0 0 1 .75.75v13a.755.755 0 0 1-.75.75z" transform="translate(7.81 3.25)" style="fill:#036a82"/>
    <path data-name="Vector" d="M.75 14.88a.755.755 0 0 1-.75-.75V.75A.755.755 0 0 1 .75 0a.755.755 0 0 1 .75.75v13.38a.755.755 0 0 1-.75.75z" transform="translate(14.98 5.87)" style="fill:#036a82"/>
</svg>
