<svg xmlns="http://www.w3.org/2000/svg" width="14" height="14" viewBox="0 0 14 14">
    <defs>
        <clipPath id="i87regtkta">
            <path data-name="Rectangle 15" transform="translate(181.745 10)" style="fill:#707070" d="M0 0h14v14H0z"/>
        </clipPath>
    </defs>
    <g data-name="Group 8" transform="translate(-181.745 -10)" style="clip-path:url(#i87regtkta)">
        <path data-name="Path 32" d="M188.745 15.25h-5.25a1.75 1.75 0 0 0-1.75 1.75v5.25a1.75 1.75 0 0 0 1.75 1.75h5.25a1.75 1.75 0 0 0 1.75-1.75V17a1.75 1.75 0 0 0-1.75-1.75z" style="fill:#707070"/>
        <path data-name="Path 33" d="M190.477 11.646a.574.574 0 0 0-.157-.31l-1.163-1.167a.578.578 0 0 0-.189-.127.584.584 0 0 0-.447 0 .587.587 0 0 0-.316.316.589.589 0 0 0-.044.223.572.572 0 0 0 .044.223.58.58 0 0 0 .126.189l.173.173h-4.767l.171-.17a.584.584 0 0 0-.825-.825l-1.167 1.167a.6.6 0 0 0 0 .825l1.167 1.167a.583.583 0 1 0 .825-.825l-.171-.172h4.763l-.171.171a.585.585 0 0 0 0 .825.6.6 0 0 0 .826 0l1.166-1.167a.593.593 0 0 0 .139-.24.6.6 0 0 0 .014-.277z" style="fill:#707070"/>
        <path data-name="Path 34" d="m194.75 21.838-.171.171v-4.767l.171.171a.577.577 0 0 0 .189.126.584.584 0 0 0 .447 0 .587.587 0 0 0 .36-.54.571.571 0 0 0-.045-.223.58.58 0 0 0-.126-.189l-1.167-1.167a.6.6 0 0 0-.827 0l-1.167 1.163a.6.6 0 0 0-.127.189.589.589 0 0 0 0 .447.6.6 0 0 0 .127.189.59.59 0 0 0 .825 0l.173-.167v4.767l-.17-.171a.582.582 0 0 0-.413-.171.584.584 0 0 0-.223.044.577.577 0 0 0-.189.126.568.568 0 0 0-.127.189.589.589 0 0 0 0 .447.58.58 0 0 0 .126.189l1.167 1.167a.594.594 0 0 0 .825 0l1.167-1.167a.583.583 0 0 0-.825-.825z" style="fill:#707070"/>
    </g>
</svg>
