<svg xmlns="http://www.w3.org/2000/svg" width="20" height="20" viewBox="0 0 20 20">
    <path data-name="Path 38" d="M0 0h20v20H0z" style="fill:none"/>
    <path data-name="Path 39" d="M18 14.183v2.947a.833.833 0 0 1-.775.832c-.364.025-.662.038-.892.038A13.333 13.333 0 0 1 3 4.667q0-.345.038-.892A.833.833 0 0 1 3.87 3h2.947a.417.417 0 0 1 .415.375c.019.192.037.344.053.46a11.584 11.584 0 0 0 1.007 3.334.38.38 0 0 1-.123.472l-1.8 1.285a10.873 10.873 0 0 0 5.7 5.7l1.283-1.8a.385.385 0 0 1 .477-.124 11.584 11.584 0 0 0 3.333 1c.116.017.268.035.458.053a.417.417 0 0 1 .374.415z" transform="translate(-.5 -.5)" style="fill:#fff"/>
</svg>
