<svg xmlns="http://www.w3.org/2000/svg" width="24" height="24" viewBox="0 0 24 24">
    <path d="M10.89 0H3.11A3.12 3.12 0 0 0 0 3.11v11.36c0 1.45 1.04 2.07 2.31 1.36l3.93-2.19a1.738 1.738 0 0 1 1.51 0l3.93 2.19c1.27.71 2.31.09 2.31-1.36V3.11A3.1 3.1 0 0 0 10.89 0z" transform="translate(2 5.88)" style="stroke:#036a82;stroke-linecap:round;stroke-linejoin:round;stroke-width:1.5px;fill:none"/>
    <path data-name="Vector" d="M14 3.11v11.36c0 1.45-1.04 2.06-2.31 1.36l-3.93-2.19a1.76 1.76 0 0 0-1.52 0l-3.93 2.19c-1.27.7-2.31.09-2.31-1.36V3.11A3.12 3.12 0 0 1 3.11 0h7.78A3.12 3.12 0 0 1 14 3.11z" transform="translate(2 5.88)" style="stroke:#036a82;stroke-linecap:round;stroke-linejoin:round;stroke-width:1.5px;fill:none"/>
    <path data-name="Vector" d="M14 3.11v11.36c0 1.45-1.04 2.06-2.31 1.36L8 13.77V6.99a3.12 3.12 0 0 0-3.11-3.11H0v-.77A3.12 3.12 0 0 1 3.11 0h7.78A3.12 3.12 0 0 1 14 3.11z" transform="translate(8 2)" style="stroke:#036a82;stroke-linecap:round;stroke-linejoin:round;stroke-width:1.5px;fill:none"/>
</svg>
