<svg xmlns="http://www.w3.org/2000/svg" width="20" height="20" viewBox="0 0 20 20">
    <path data-name="Path 42" d="M0 0h20v20H0z" style="fill:none"/>
    <path data-name="Path 43" d="m2 18.667 1.127-4.14a8.33 8.33 0 1 1 3.012 3.011zM7.326 6.423a.8.8 0 0 0-.309.083 1.077 1.077 0 0 0-.245.19 1.857 1.857 0 0 0-.218.255 2.274 2.274 0 0 0-.471 1.4 2.915 2.915 0 0 0 .275 1.177A7.961 7.961 0 0 0 8 11.812c.178.178.352.356.54.522a7.873 7.873 0 0 0 3.2 1.705l.474.072a4.532 4.532 0 0 0 .463-.011 1.658 1.658 0 0 0 .694-.193c.138-.073.2-.11.319-.183 0 0 .036-.023.1-.075a1.912 1.912 0 0 0 .275-.24.956.956 0 0 0 .175-.252 2.321 2.321 0 0 0 .157-.611 1.634 1.634 0 0 0 .012-.311.284.284 0 0 0-.158-.221l-.485-.217s-.725-.316-1.167-.517a.415.415 0 0 0-.148-.034.4.4 0 0 0-.315.106 10.037 10.037 0 0 0-.663.777.292.292 0 0 1-.307.108 1.18 1.18 0 0 1-.159-.055l-.21-.091a5.008 5.008 0 0 1-1.308-.833c-.105-.092-.2-.192-.3-.288a5.247 5.247 0 0 1-.85-1.057l-.049-.079a.769.769 0 0 1-.09-.173.267.267 0 0 1 .051-.221s.2-.222.3-.342a3.65 3.65 0 0 0 .219-.311.5.5 0 0 0 .078-.447q-.35-.855-.723-1.7a.422.422 0 0 0-.325-.208c-.045 0-.09-.01-.135-.013a2.821 2.821 0 0 0-.336 0z" transform="translate(-.333 -.333)" style="fill:#fff"/>
</svg>
